<svg width="24" height="22" viewBox="0 0 24 22" fill="none" xmlns="http://www.w3.org/2000/svg">
    <path d="M16.9289 12.4134C18.5509 12.4134 19.8657 11.0871 19.8657 9.45092C19.8657 7.81477 18.5509 6.4884 16.9289 6.4884C15.307 6.4884 13.9922 7.81477 13.9922 9.45092C13.9922 11.0871 15.307 12.4134 16.9289 12.4134Z"
          stroke="white" stroke-width="2"/>
    <path d="M15.1675 15.2771H18.743C20.7783 15.2771 22.4691 16.7659 22.8028 18.7229C22.9349 19.499 22.3479 20.2101 21.5669 20.2101H12.3436C11.5626 20.2101 10.9756 19.499 11.1077 18.7229C11.4414 16.7659 13.1322 15.2771 15.1675 15.2771Z"
          stroke="white" stroke-width="2"/>
    <path d="M14.0964 10.1223L8.98621 15.2773L2.25234 8.54935L2.24314 8.54007C1.13518 7.45276 0.726283 5.82981 1.18535 4.34013C1.64442 2.85046 2.89286 1.74796 4.41725 1.48563C5.69913 1.26547 6.99356 1.6712 7.92174 2.55185L7.95686 2.58728L8.9628 3.61554L9.99467 2.61427L10.0407 2.56956C10.9237 1.73278 12.1387 1.3262 13.3578 1.48057L13.5619 1.51178C15.0737 1.78086 16.3121 2.87829 16.7695 4.357C17.048 5.25621 17.0095 6.20433 16.6917 7.05461"
          stroke="white" stroke-width="2"/>
</svg>
