<svg width="49" height="48" viewBox="0 0 49 48" fill="none" xmlns="http://www.w3.org/2000/svg">
    <rect x="1" y="0.5" width="47" height="47" rx="23.5" fill="white"/>
    <rect x="1" y="0.5" width="47" height="47" rx="23.5" stroke="#E0E0E1"/>
    <path fill-rule="evenodd" clip-rule="evenodd"
          d="M22.5 14C18.0817 14 14.5 17.5817 14.5 22C14.5 26.4183 18.0817 30 22.5 30C24.3487 30 26.051 29.3729 27.4056 28.3199L32.7929 33.7071L32.8871 33.7903C33.2794 34.0953 33.8466 34.0676 34.2071 33.7071C34.5976 33.3166 34.5976 32.6834 34.2071 32.2929L28.8199 26.9056C29.8729 25.551 30.5 23.8487 30.5 22C30.5 17.5817 26.9183 14 22.5 14ZM22.5 16C25.8137 16 28.5 18.6863 28.5 22C28.5 25.3137 25.8137 28 22.5 28C19.1863 28 16.5 25.3137 16.5 22C16.5 18.6863 19.1863 16 22.5 16Z"
          fill="#77787C"/>
</svg>
