<svg width="50" height="50" viewBox="0 0 24 24" fill="none" xmlns="http://www.w3.org/2000/svg">
    <path d="M12 21C11.55 21 11.11 20.9 10.71 20.71C10.31 20.52 9.96 20.27 9.71 19.96L2.29 12.54C1.56 11.81 1 10.87 1 9.81C1 8.75 1.56 7.81 2.29 7.08C3.02 6.35 3.96 5.79 5.02 5.79C6.08 5.79 7.02 6.35 7.75 7.08L12 11.34L16.25 7.08C16.98 6.35 17.92 5.79 18.98 5.79C20.04 5.79 20.98 6.35 21.71 7.08C22.44 7.81 23 8.75 23 9.81C23 10.87 22.44 11.81 21.71 12.54L14.29 19.96C14.04 20.27 13.69 20.52 13.29 20.71C12.89 20.9 12.45 21 12 21Z"
          fill="#ffffff"/>
    <circle cx="12" cy="16" r="2" fill="#ffffff"/>
    <path d="M15 21C15 19.89 14.1 19 13 19H11C9.9 19 9 19.89 9 21H15Z" fill="#ffffff"/>
</svg>
